<?xml version="1.0" standalone="no"?>
<!DOCTYPE svg PUBLIC "-//W3C//DTD SVG 1.0//EN" "http://www.w3.org/TR/2001/REC-SVG-20010904/DTD/svg10.dtd">
<svg xmlns="http://www.w3.org/2000/svg" xmlns:xlink="http://www.w3.org/1999/xlink" id="body_1" width="31" height="23">

<g transform="matrix(0.046 0 0 0.046 3.9999995 -0)">
    <path d="M351.91 488.94L148.09 488.94L119.65 113.97L380.35 113.97L351.91 488.94L351.91 488.94" stroke="none" fill="#FFFFFF" fill-rule="nonzero" />
    <path d="M333.04 113.97L304.6 488.94L351.91 488.94L380.35 113.97L333.04 113.97L333.04 113.97" stroke="none" fill="#000000" fill-rule="nonzero" fill-opacity="0.14901961" />
    <path d="M373.95 410.56L126.05 410.56L100.18 157.95L399.82 157.95L373.95 410.56L373.95 410.56" stroke="none" fill="#B3814B" fill-rule="nonzero" />
    <path d="M352.51 157.94L326.64 410.56L373.95 410.56L399.82 157.94L352.51 157.94L352.51 157.94" stroke="none" fill="#000000" fill-rule="nonzero" fill-opacity="0.14901961" />
    <path d="M100.55 63.92L399.45 63.92L399.45 114.53L100.55 114.53z" stroke="none" fill="#513B2C" fill-rule="nonzero" />
    <path transform="matrix(-1 1.5099579E-07 -1.5099579E-07 -1 751.96 178.46)"  d="M352.14 63.92L399.82 63.92L399.82 114.53L352.14 114.53z" stroke="none" fill="#000000" fill-rule="nonzero" fill-opacity="0.14901961" />
    <path d="M362.24 11.06L137.76 11.06L120.14 63.92L379.86 63.92L362.24 11.06L362.24 11.06" stroke="none" fill="#513B2C" fill-rule="nonzero" />
    <path d="M362.24 11.06L314.93 11.06L332.55 63.92L379.86 63.92L362.24 11.06L362.24 11.06" stroke="none" fill="#000000" fill-rule="nonzero" fill-opacity="0.14901961" />
    <path d="M317.59 278.37C 317.59 297.0345 310.99112 312.96558 297.79333 326.16333C 284.59558 339.3611 268.6645 345.96 250 345.96C 231.33554 345.96 215.40443 339.3611 202.20667 326.16333C 189.0089 312.96558 182.41 297.0345 182.41 278.37C 182.41 259.70554 189.0089 243.77443 202.20667 230.57666C 215.40443 217.37889 231.33554 210.78 250 210.78C 268.6645 210.78 284.59558 217.37889 297.79333 230.57666C 310.99112 243.77443 317.59 259.70554 317.59 278.37C 317.59 279.15652 317.5763 279.9428 317.54883 280.72885" stroke="none" fill="#513B2C" fill-rule="nonzero" />
    <path d="M282.33 219C 296.6527 245.3189 291.94092 277.92584 270.75336 299.1134C 249.56583 320.30093 216.95888 325.01276 190.63998 310.69C 204.43036 336.0004 232.75426 349.7807 261.18005 345.0096C 289.60587 340.23853 311.8785 317.96588 316.6496 289.54007C 321.4207 261.11426 307.64038 232.79037 282.33 219z" stroke="none" fill="#000000" fill-rule="nonzero" fill-opacity="0.14901961" />
    <path d="M373.95 410.56L126.05 410.56L100.18 157.95L399.82 157.95L373.95 410.56L373.95 410.56" stroke="#000000" stroke-width="20" stroke-linecap="square" fill="none" />
    <path d="M100.55 63.92L399.45 63.92L399.45 114.53L100.55 114.53z" stroke="#000000" stroke-width="20" stroke-linecap="square" fill="none" />
    <path d="M362.24 11.06L137.76 11.06L120.14 63.92L379.86 63.92L362.24 11.06L362.24 11.06" stroke="#000000" stroke-width="20" stroke-linecap="square" fill="none" />
    <path d="M317.59 278.37C 317.59 297.0345 310.99112 312.96558 297.79333 326.16333C 284.59558 339.3611 268.6645 345.96 250 345.96C 231.33554 345.96 215.40443 339.3611 202.20667 326.16333C 189.0089 312.96558 182.41 297.0345 182.41 278.37C 182.41 259.70554 189.0089 243.77443 202.20667 230.57666C 215.40443 217.37889 231.33554 210.78 250 210.78C 268.6645 210.78 284.59558 217.37889 297.79333 230.57666C 310.99112 243.77443 317.59 259.70554 317.59 278.37C 317.59 279.15652 317.5763 279.9428 317.54883 280.72885" stroke="#000000" stroke-width="20" stroke-linecap="square" fill="none" />
    <path d="M377.01 157.95L380.35 113.97L119.65 113.97L122.99 157.95L377.01 157.95L377.01 157.95" stroke="#000000" stroke-width="20" stroke-linecap="square" fill="none" />
    <path d="M142.15 410.56L148.09 488.94L351.91 488.94L357.85 410.56L142.15 410.56L142.15 410.56" stroke="#000000" stroke-width="20" stroke-linecap="square" fill="none" />
</g>
</svg>